<svg width="61" height="48" viewBox="0 0 61 48" fill="none" xmlns="http://www.w3.org/2000/svg">
<g clipPath="url(#clip0_1371_1616)">
<path d="M24.4091 24.5297C24.995 25.1156 25.9447 25.1156 26.5306 24.5297L27.5909 23.4694C28.1769 22.8834 28.1769 21.9338 27.5909 21.3478L24.2422 18L27.59 14.6512C28.1759 14.0653 28.1759 13.1156 27.59 12.5297L26.5297 11.4694C25.9437 10.8834 24.9941 10.8834 24.4081 11.4694L18.9387 16.9387C18.3528 17.5247 18.3528 18.4744 18.9387 19.0603L24.4091 24.5297ZM33.41 23.4703L34.4703 24.5306C35.0563 25.1166 36.0059 25.1166 36.5919 24.5306L42.0612 19.0613C42.6472 18.4753 42.6472 17.5256 42.0612 16.9397L36.5919 11.4703C36.0059 10.8844 35.0563 10.8844 34.4703 11.4703L33.41 12.5306C32.8241 13.1166 32.8241 14.0662 33.41 14.6522L36.7578 18L33.41 21.3488C32.8241 21.9347 32.8241 22.8844 33.41 23.4703ZM59 39H36.2694C36.2 40.8572 34.8903 42 33.2 42H27.5C25.7478 42 24.4044 40.3622 24.4278 39H2C1.175 39 0.5 39.675 0.5 40.5V42C0.5 45.3 3.2 48 6.5 48H54.5C57.8 48 60.5 45.3 60.5 42V40.5C60.5 39.675 59.825 39 59 39ZM54.5 4.5C54.5 2.025 52.475 0 50 0H11C8.525 0 6.5 2.025 6.5 4.5V36H54.5V4.5ZM48.5 30H12.5V6H48.5V30Z" fill="white"/>
</g>
<defs>
<clipPath id="clip0_1371_1616">
<rect width="60" height="48" fill="white" transform="translate(0.5)"/>
</clipPath>
</defs>
</svg>
