<svg width="38" height="39" viewBox="0 0 38 39" fill="none" xmlns="http://www.w3.org/2000/svg">
<path d="M9.50039 5.72578C9.50039 7.74358 8.15139 9.48018 5.69849 9.48018C3.38999 9.48018 1.90039 7.84238 1.90039 5.82458C1.90039 3.75358 3.34439 1.92578 5.70039 1.92578C8.05639 1.92578 9.45479 3.65478 9.50039 5.72578ZM1.90039 36.1258V11.4258H9.50039V36.1258H1.90039ZM13.3004 19.8694C13.3004 16.9339 13.2035 14.481 13.1066 12.3625H19.9352L20.2734 15.6362H20.4178C21.3792 14.0953 23.7352 11.8362 27.6796 11.8362C32.4904 11.8362 36.1004 15.0567 36.1004 21.986V36.1258H28.5004V23.0899C28.5004 20.0613 27.3471 17.7509 24.7004 17.7509C22.6826 17.7509 21.6718 19.3849 21.1417 20.732C20.9479 21.2146 20.9004 21.8872 20.9004 22.5617V36.1258H13.3004V19.8694Z" fill="#F8F8F8"/>
</svg>
