<?xml version="1.0" standalone="no"?>
<!DOCTYPE svg PUBLIC "-//W3C//DTD SVG 20010904//EN"
 "http://www.w3.org/TR/2001/REC-SVG-20010904/DTD/svg10.dtd">
<svg version="1.0" xmlns="http://www.w3.org/2000/svg"
 width="956.000000pt" height="297.000000pt" viewBox="0 0 956.000000 297.000000"
 preserveAspectRatio="xMidYMid meet">

<g transform="translate(0.000000,297.000000) scale(0.100000,-0.100000)"
fill="#000000" stroke="none">
<path d="M1280 2954 c-220 -41 -323 -74 -481 -155 -147 -76 -260 -161 -380
-287 -143 -148 -259 -334 -328 -524 l-21 -58 838 0 839 0 21 23 c11 12 23 33
27 47 5 23 -10 41 -138 165 -127 124 -146 147 -167 200 -26 69 -37 222 -25
349 7 79 25 105 25 38 0 -50 26 -136 47 -158 12 -12 26 -14 54 -10 54 9 60
-11 16 -48 -42 -35 -46 -61 -21 -122 19 -46 49 -80 86 -100 31 -16 30 -18 53
68 10 37 21 65 25 63 4 -3 11 -37 14 -76 10 -95 18 -113 66 -145 53 -35 68
-23 72 59 l3 62 26 -37 26 -38 23 25 c13 13 27 22 32 19 4 -3 20 -28 34 -57
25 -48 27 -50 40 -32 9 11 14 44 14 84 0 82 -27 143 -74 165 -33 15 -56 51
-56 86 0 25 6 25 38 0 54 -43 63 46 12 119 -34 47 -33 57 3 47 81 -20 157
-172 141 -277 -8 -46 -7 -46 54 -1 17 13 32 21 32 18 0 -4 -30 -79 -66 -167
l-66 -161 16 -81 c9 -45 16 -92 16 -104 l0 -23 365 0 365 0 -21 58 c-72 194
-185 375 -328 524 -203 212 -448 351 -740 420 -68 16 -129 21 -286 23 -110 2
-211 1 -225 -1z"/>
<path d="M2038 848 c-90 -105 -173 -185 -231 -222 -140 -90 -325 -108 -454
-44 -26 13 -88 62 -138 110 l-91 87 -60 -30 c-72 -36 -209 -62 -279 -54 -83
10 -157 34 -218 71 -52 32 -59 34 -73 20 -24 -25 -57 -29 -181 -24 -131 6
-126 12 -62 -85 63 -93 169 -215 248 -285 l69 -62 905 0 904 0 79 69 c68 59
111 104 174 185 10 13 3 11 -24 -8 -99 -67 -198 -14 -370 199 -97 120 -112
135 -130 135 -8 0 -39 -28 -68 -62z"/>
</g>
</svg>
