<svg width="55" height="52" viewBox="0 0 55 52" fill="none" xmlns="http://www.w3.org/2000/svg">
<path d="M52.9107 1.42822C42.8764 1.78329 34.7387 3.87385 28.5177 7.09663L25.4095 12.1016L24.8856 9.24843C23.7745 10.0002 22.7431 10.7944 21.7939 11.6257L20.2449 16.2021L19.7142 13.6473C15.4269 18.2691 13.3428 23.7897 13.4981 29.4815C18.4839 19.9685 27.4626 11.9389 35.8543 7.02046L36.8791 8.64241C28.9361 13.2978 20.3852 20.952 15.5547 29.7928H16.8368C18.923 28.572 20.9669 27.065 22.9968 25.3809L19.8032 25.5429L25.5215 23.1974C30.4654 18.7655 35.3791 13.5516 40.6365 9.15337L38.0557 8.62626L44.0147 6.4904C46.8469 4.40989 49.7944 2.64687 52.9104 1.42822H52.9107ZM6.77781 31.6905V34.7788H20.9602V31.6905H6.77781ZM8.92684 36.6767L5.48266 39.5903L3.13281 48.2198L4.66527 49.8322H23.3564L24.8921 48.2199L22.5422 39.5904L19.2826 36.6768H8.92684V36.6767Z" fill="white"/>
</svg>
